<svg xmlns="http://www.w3.org/2000/svg" version="1.1" xmlns:xlink="http://www.w3.org/1999/xlink" xmlns:svgjs="http://svgjs.dev/svgjs" width="1000" height="1000" viewBox="0 0 1000 1000"><g transform="matrix(1,0,0,1,0,0.00014547148333576843)"><svg viewBox="0 0 280 280" data-background-color="#ffffff" preserveAspectRatio="xMidYMid meet" height="1000" width="1000" xmlns="http://www.w3.org/2000/svg" xmlns:xlink="http://www.w3.org/1999/xlink"><g id="tight-bounds" transform="matrix(1,0,0,1,0,0.0000407320152930879)"><svg viewBox="0 0 280 280" height="280" width="280"><g><svg viewBox="0 0 280 280" height="280" width="280"><g><svg viewBox="0 0 280 280" height="280" width="280"><g id="textblocktransform"><svg viewBox="0 0 280 280" height="280" width="280" id="textblock"><g><svg viewBox="0 0 280 280" height="280" width="280"><g transform="matrix(1,0,0,1,57.50420886156945,57.50420886156945)"><svg viewBox="0 0 164.9915822768611 164.9915822768611" height="164.9915822768611" width="164.9915822768611"><g><circle r="82" cx="82.49579113843055" cy="82.49579113843055" fill="#e65728" data-fill-palette-color="accent"></circle><svg xmlns="http://www.w3.org/2000/svg" xmlns:xlink="http://www.w3.org/1999/xlink" version="1.1" x="24.74873734152917" y="24.748737341529164" viewBox="11.915999999999997 11.915 76.168 76.167" enable-background="new 0 0 100 100" xml:space="preserve" height="115.49410759380275" width="115.49410759380275" class="icon-xg-0" data-fill-palette-color="quaternary" id="xg-0"><path d="M47 21.916h-2c-18.242 0-33.084 14.842-33.084 33.084 0 18.241 14.842 33.082 33.084 33.082S78.084 73.241 78.084 55v-2H47V21.916zM74.016 57C72.984 72.106 60.364 84.082 45 84.082c-16.037 0-29.084-13.046-29.084-29.082 0-15.364 11.977-27.984 27.084-29.016V57H74.016zM55.047 11.918l-2.003-0.003V47h35.04v-2C88.084 26.783 73.264 11.943 55.047 11.918zM57.044 43V15.989C71.466 16.996 83.03 28.576 84.016 43H57.044z" fill="#ffffff" data-fill-palette-color="quaternary"></path></svg></g></svg></g><g><path d="M25.851 105.342l-1.249 3.394-23.338-19.889 1.263-3.433 30.649 0.024-1.263 3.433-7.852-0.087-4.23 11.495zM5.977 88.655l11.586 9.694 3.52-9.566z" fill="#ffa96a" data-fill-palette-color="primary"></path><path d="M20.773 57.924v0c-0.376 0.572-0.877 0.923-1.504 1.053-0.626 0.13-1.225 0.006-1.798-0.37v0c-0.55-0.361-0.883-0.851-1.001-1.469-0.118-0.619 0.011-1.214 0.387-1.787v0c0.361-0.55 0.853-0.899 1.475-1.047 0.622-0.148 1.208-0.042 1.758 0.319v0c0.572 0.376 0.92 0.883 1.042 1.521 0.122 0.638 0.002 1.231-0.359 1.78zM42.536 70.161l-1.896 2.886-17.037-11.197 1.896-2.885z" fill="#ffa96a" data-fill-palette-color="primary"></path><path d="M76.89 38.944v0c-1.766 1.154-3.513 1.837-5.241 2.049-1.727 0.212-3.321-0.023-4.781-0.706-1.46-0.682-2.685-1.781-3.675-3.295v0l3.028-1.978c0.614 0.941 1.398 1.664 2.352 2.171 0.953 0.507 2.002 0.722 3.146 0.645 1.145-0.077 2.336-0.52 3.575-1.329v0c1.629-1.064 2.636-2.278 3.02-3.643 0.385-1.364 0.196-2.632-0.568-3.802v0c-0.629-0.963-1.342-1.603-2.137-1.918-0.795-0.315-1.662-0.428-2.602-0.337-0.939 0.09-1.952 0.293-3.038 0.61-1.086 0.317-2.235 0.625-3.446 0.925v0c-2.278 0.572-4.175 0.674-5.691 0.306-1.517-0.368-2.777-1.32-3.781-2.856v0c-0.862-1.27-1.31-2.606-1.343-4.009-0.033-1.403 0.335-2.756 1.104-4.059 0.768-1.304 1.932-2.465 3.493-3.485v0c1.537-1.004 3.061-1.59 4.57-1.758 1.51-0.168 2.91 0.046 4.201 0.643 1.29 0.597 2.366 1.531 3.229 2.8v0l-3.028 1.979c-0.435-0.665-1.038-1.212-1.809-1.642-0.771-0.429-1.642-0.621-2.611-0.577-0.969 0.044-1.982 0.411-3.037 1.1v0c-1.323 0.831-2.178 1.865-2.565 3.1-0.388 1.235-0.184 2.461 0.609 3.677v0c0.674 1.032 1.484 1.633 2.429 1.801 0.945 0.168 2.061 0.086 3.348-0.249 1.288-0.334 2.769-0.721 4.446-1.161v0c1.417-0.336 2.764-0.529 4.041-0.578 1.277-0.049 2.459 0.194 3.544 0.729 1.086 0.535 2.071 1.479 2.955 2.832v0c0.749 1.147 1.159 2.426 1.229 3.836 0.07 1.41-0.287 2.83-1.071 4.259-0.785 1.429-2.083 2.736-3.895 3.92z" fill="#ffa96a" data-fill-palette-color="primary"></path><path d="M105.164 25.957v0c-2.299 0.728-4.349 0.608-6.15-0.359-1.801-0.967-3.161-2.901-4.079-5.8v0l-3.598-11.364 3.291-1.042 3.487 11.011c1.282 4.049 3.582 5.548 6.9 4.497v0c1.698-0.538 2.91-1.59 3.635-3.156 0.726-1.566 0.733-3.473 0.021-5.719v0l-3.189-10.07 3.292-1.043 6.155 19.435-2.978 0.943-1.34-3.412c-0.212 1.418-0.801 2.668-1.766 3.749-0.965 1.082-2.192 1.858-3.681 2.33z" fill="#ffa96a" data-fill-palette-color="primary"></path><path d="M132.971 20.741l-3.452-0.075 0.443-20.382 3.123 0.068 0.183 2.964c0.681-1.081 1.576-1.912 2.685-2.49 1.109-0.579 2.348-0.853 3.718-0.824v0c1.616 0.035 2.999 0.394 4.149 1.077 1.15 0.683 2.025 1.702 2.627 3.058v0c0.739-1.217 1.74-2.168 3.001-2.853 1.262-0.685 2.619-1.012 4.071-0.98v0c2.438 0.053 4.367 0.828 5.787 2.325 1.42 1.497 2.097 3.766 2.031 6.807v0l-0.259 11.917-3.411-0.074 0.251-11.547c0.046-2.109-0.344-3.708-1.17-4.795-0.826-1.087-2.033-1.648-3.622-1.682v0c-1.644-0.036-3.02 0.571-4.13 1.822-1.11 1.25-1.69 3.053-1.742 5.409v0l-0.23 10.561-3.452-0.075 0.252-11.547c0.046-2.109-0.344-3.708-1.17-4.794-0.826-1.087-2.033-1.648-3.623-1.683v0c-1.616-0.035-2.979 0.572-4.089 1.823-1.11 1.25-1.69 3.053-1.742 5.409v0z" fill="#ffa96a" data-fill-palette-color="primary"></path><path d="M177.386 26.633l-3.178-1.35 7.97-18.764 2.876 1.221-0.931 2.821c1.034-0.752 2.173-1.191 3.418-1.317 1.244-0.126 2.497 0.078 3.758 0.614v0c1.488 0.632 2.639 1.478 3.454 2.539 0.815 1.061 1.25 2.332 1.305 3.814v0c1.138-0.856 2.42-1.369 3.846-1.537 1.426-0.168 2.807 0.031 4.144 0.599v0c2.245 0.953 3.749 2.389 4.512 4.306 0.764 1.917 0.551 4.275-0.638 7.075v0l-4.66 10.971-3.14-1.334 4.515-10.63c0.825-1.942 1.055-3.571 0.692-4.887-0.364-1.316-1.277-2.284-2.741-2.906v0c-1.513-0.643-3.017-0.589-4.511 0.161-1.494 0.75-2.702 2.209-3.624 4.377v0l-4.129 9.723-3.178-1.35 4.515-10.63c0.825-1.942 1.055-3.571 0.692-4.887-0.364-1.316-1.277-2.284-2.74-2.906v0c-1.488-0.632-2.979-0.573-4.474 0.177-1.494 0.75-2.702 2.209-3.624 4.377v0z" fill="#ffa96a" data-fill-palette-color="primary"></path><path d="M219.234 51.284v0c-1.268-1.131-2.13-2.285-2.586-3.462-0.456-1.177-0.569-2.306-0.339-3.387 0.229-1.081 0.718-2.04 1.466-2.878v0c1.386-1.554 3.046-2.222 4.979-2.003 1.934 0.219 3.923 1.241 5.969 3.065v0l4.111 3.665 0.164-0.184c1.185-1.329 1.736-2.647 1.651-3.951-0.084-1.305-0.709-2.478-1.875-3.518v0c-1.002-0.894-2.09-1.414-3.262-1.56-1.173-0.146-2.28 0.179-3.321 0.976v0l-2.638-2.352c1.087-1.013 2.29-1.611 3.609-1.793 1.319-0.182 2.637-0.044 3.953 0.414 1.317 0.458 2.517 1.171 3.601 2.137v0c2.127 1.897 3.221 3.891 3.283 5.984 0.061 2.092-0.747 4.079-2.425 5.961v0l-8.343 9.356-2.301-2.051 2.282-2.867c-1.195 0.476-2.476 0.646-3.843 0.511-1.366-0.135-2.745-0.823-4.135-2.063zM221.575 49.461v0c0.982 0.875 2.053 1.372 3.214 1.49 1.161 0.118 2.291-0.068 3.389-0.558 1.098-0.49 2.048-1.185 2.85-2.084v0l0.027-0.031-3.895-3.474c-1.513-1.35-2.814-2.042-3.904-2.076-1.089-0.035-1.98 0.336-2.672 1.113v0c-0.711 0.798-0.99 1.697-0.836 2.697 0.154 1 0.763 1.975 1.827 2.923z" fill="#ffa96a" data-fill-palette-color="primary"></path><path d="M238.536 72.452l-1.953-2.847 16.812-11.532 1.767 2.576-3.057 2.446c1.464-0.24 2.887-0.053 4.271 0.559 1.384 0.613 2.61 1.698 3.68 3.257v0l-2.983 2.046-0.535-0.779c-0.682-0.994-1.485-1.789-2.408-2.385-0.924-0.596-1.974-0.856-3.151-0.779-1.177 0.076-2.5 0.618-3.969 1.625v0z" fill="#ffa96a" data-fill-palette-color="primary"></path><path d="M242.287 99.658l-1.245-3.396 12.083 0.955-0.41-1.119 14.501-13.94 1.288 3.511-12.576 11.79 17.357 1.254 1.231 3.357z" fill="#ffa96a" data-fill-palette-color="primary"></path><path d="M6.515 182.026l-1.295-3.488 31.542-0.066 1.308 3.526-23.965 20.479-1.308-3.525 6.198-5.183-4.384-11.811zM33.209 181.774l-15.542 0.179 3.647 9.826z" fill="#ffa96a" data-fill-palette-color="primary"></path><path d="M45.819 205.912v0c-0.388-0.589-0.516-1.207-0.383-1.852 0.133-0.645 0.494-1.162 1.083-1.549v0c0.566-0.373 1.164-0.487 1.792-0.344 0.634 0.14 1.145 0.505 1.533 1.095v0c0.369 0.561 0.497 1.166 0.383 1.815-0.108 0.645-0.445 1.155-1.012 1.527v0c-0.589 0.388-1.21 0.51-1.863 0.366-0.653-0.144-1.164-0.497-1.533-1.058zM25.402 221.486l-1.955-2.97 17.515-11.534 1.956 2.969z" fill="#ffa96a" data-fill-palette-color="primary"></path><path d="M64.625 258.994v0c-1.813-1.195-3.172-2.562-4.078-4.103-0.911-1.544-1.341-3.144-1.29-4.801 0.041-1.655 0.574-3.261 1.599-4.816v0l3.105 2.047c-0.637 0.967-1 2.003-1.089 3.109-0.089 1.106 0.14 2.184 0.687 3.234 0.541 1.046 1.447 1.987 2.717 2.824v0c1.67 1.101 3.23 1.554 4.678 1.361 1.443-0.198 2.558-0.894 3.346-2.09v0c0.652-0.99 0.964-1.924 0.937-2.804-0.027-0.88-0.277-1.746-0.749-2.598-0.466-0.849-1.073-1.72-1.821-2.615-0.742-0.891-1.502-1.847-2.28-2.869v0c-1.471-1.913-2.345-3.662-2.622-5.247-0.271-1.581 0.112-3.158 1.149-4.731v0c0.848-1.336 1.927-2.307 3.237-2.913 1.31-0.605 2.735-0.814 4.277-0.627 1.544 0.197 3.117 0.823 4.718 1.879v0c1.579 1.04 2.756 2.235 3.533 3.583 0.779 1.358 1.15 2.768 1.114 4.229-0.036 1.461-0.478 2.86-1.326 4.197v0l-3.106-2.047c0.452-0.686 0.725-1.479 0.817-2.378 0.086-0.903-0.091-1.804-0.533-2.702-0.436-0.894-1.195-1.698-2.276-2.411v0c-1.329-0.909-2.654-1.294-3.976-1.155-1.325 0.144-2.399 0.839-3.221 2.086v0c-0.697 1.058-0.932 2.068-0.705 3.03 0.231 0.956 0.767 1.974 1.607 3.052 0.84 1.079 1.812 2.318 2.915 3.718v0c0.899 1.2 1.631 2.392 2.197 3.577 0.571 1.188 0.825 2.402 0.763 3.641-0.056 1.243-0.542 2.559-1.458 3.949v0c-0.777 1.178-1.816 2.089-3.118 2.733-1.302 0.643-2.787 0.887-4.456 0.73-1.669-0.156-3.433-0.847-5.292-2.072z" fill="#ffa96a" data-fill-palette-color="primary"></path><path d="M98.046 274.587v0c-2.361-0.76-4.008-2.081-4.941-3.965-0.934-1.884-0.921-4.316 0.037-7.296v0l3.756-11.669 3.374 1.086-3.638 11.307c-1.339 4.16-0.303 6.789 3.107 7.887v0c1.741 0.56 3.383 0.401 4.925-0.477 1.542-0.878 2.684-2.472 3.427-4.78v0l3.33-10.349 3.375 1.086-6.425 19.964-3.051-0.982 0.907-3.659c-1.025 1.059-2.263 1.754-3.715 2.086-1.452 0.331-2.942 0.252-4.468-0.239z" fill="#ffa96a" data-fill-palette-color="primary"></path><path d="M132.653 279.935l-3.545 0.065-0.382-20.969 3.216-0.058 0.302 3.046c0.657-1.142 1.546-2.036 2.664-2.679 1.112-0.637 2.374-0.968 3.785-0.994v0c1.664-0.03 3.099 0.283 4.303 0.939 1.211 0.649 2.154 1.66 2.83 3.032v0c0.71-1.28 1.698-2.299 2.966-3.055 1.267-0.756 2.648-1.148 4.14-1.176v0c2.514-0.046 4.531 0.671 6.052 2.151 1.521 1.48 2.309 3.784 2.366 6.915v0l0.224 12.256-3.514 0.064-0.217-11.876c-0.04-2.171-0.504-3.797-1.394-4.877-0.897-1.087-2.164-1.615-3.8-1.585v0c-1.685 0.031-3.074 0.71-4.166 2.039-1.086 1.335-1.606 3.215-1.563 5.639v0l0.198 10.86-3.554 0.065-0.217-11.877c-0.04-2.171-0.508-3.797-1.404-4.877-0.89-1.087-2.153-1.615-3.791-1.585v0c-1.658 0.03-3.033 0.71-4.125 2.038-1.092 1.335-1.617 3.215-1.572 5.64v0z" fill="#ffa96a" data-fill-palette-color="primary"></path><path d="M185.06 272.579l-3.264 1.383-8.18-19.311 2.961-1.255 1.418 2.714c0.184-1.305 0.674-2.465 1.472-3.48 0.794-1.006 1.841-1.784 3.14-2.334v0c1.533-0.649 2.98-0.894 4.342-0.735 1.366 0.151 2.618 0.736 3.757 1.757v0c0.181-1.453 0.718-2.767 1.612-3.941 0.894-1.175 2.028-2.053 3.403-2.636v0c2.315-0.981 4.454-1.068 6.417-0.263 1.963 0.805 3.555 2.649 4.776 5.532v0l4.781 11.288-3.236 1.371-4.633-10.938c-0.847-2-1.885-3.334-3.113-4.005-1.238-0.674-2.61-0.691-4.118-0.052v0c-1.552 0.657-2.587 1.806-3.105 3.446-0.509 1.644-0.29 3.582 0.656 5.816v0l4.236 10.001-3.274 1.386-4.633-10.937c-0.847-2-1.888-3.333-3.122-4.001-1.231-0.676-2.601-0.695-4.109-0.056v0c-1.526 0.647-2.549 1.79-3.066 3.43-0.515 1.647-0.3 3.586 0.646 5.819v0z" fill="#ffa96a" data-fill-palette-color="primary"></path><path d="M233.659 244.947v0c-1.304 1.163-2.584 1.909-3.84 2.24-1.256 0.331-2.422 0.315-3.497-0.047-1.076-0.362-1.999-0.976-2.77-1.84v0c-1.427-1.6-1.915-3.373-1.464-5.317 0.452-1.954 1.728-3.867 3.83-5.741v0l4.233-3.775-0.17-0.191c-1.217-1.365-2.498-2.081-3.844-2.149-1.345-0.067-2.618 0.435-3.82 1.506v0c-1.028 0.916-1.685 1.966-1.97 3.147-0.286 1.182-0.084 2.351 0.607 3.507v0l-2.715 2.421c-0.91-1.226-1.379-2.524-1.407-3.895-0.033-1.375 0.262-2.707 0.883-3.995 0.622-1.289 1.49-2.43 2.606-3.425v0c2.188-1.951 4.355-2.836 6.498-2.655 2.148 0.186 4.084 1.246 5.808 3.179v0l8.582 9.625-2.363 2.106-2.663-2.663c0.349 1.277 0.372 2.605 0.07 3.985-0.297 1.375-1.162 2.701-2.594 3.978zM232.069 242.346v0c1.012-0.903 1.647-1.941 1.903-3.115 0.261-1.169 0.205-2.344-0.169-3.525-0.374-1.181-0.973-2.234-1.798-3.16v0l-0.028-0.031-4.011 3.577c-1.554 1.386-2.414 2.635-2.58 3.746-0.16 1.107 0.115 2.059 0.826 2.856v0c0.734 0.823 1.621 1.216 2.662 1.179 1.036-0.043 2.101-0.552 3.195-1.527z" fill="#ffa96a" data-fill-palette-color="primary"></path><path d="M255.474 219.479l-2.01 2.92-17.277-11.889 1.824-2.649 3.473 2.04c-0.765-1.317-1.112-2.753-1.04-4.308 0.082-1.557 0.674-3.137 1.777-4.739v0l3.064 2.109-0.553 0.804c-0.703 1.021-1.169 2.085-1.398 3.192-0.229 1.106-0.091 2.211 0.413 3.315 0.504 1.104 1.51 2.174 3.017 3.211v0z" fill="#ffa96a" data-fill-palette-color="primary"></path><path d="M278.736 194.269l-1.289 3.489-8.819-8.803-0.424 1.147-20.662 1.247 1.336-3.615 17.707-0.838-12.754-12.558 1.275-3.451z" fill="#ffa96a" data-fill-palette-color="primary"></path><path d="M6.983 140.039c0-1.873 1.518-3.391 3.391-3.391 1.873 0 3.391 1.518 3.392 3.391 0 1.873-1.518 3.391-3.392 3.391-1.873 0-3.391-1.518-3.391-3.391z" fill="#ffa96a" data-fill-palette-color="primary"></path><path d="M265.931 140.039c0-1.873 1.518-3.391 3.391-3.391 1.873 0 3.391 1.518 3.392 3.391 0 1.873-1.518 3.391-3.392 3.391-1.873 0-3.391-1.518-3.391-3.391z" fill="#ffa96a" data-fill-palette-color="primary"></path></g></svg></g></svg></g></svg></g><g></g></svg></g><defs></defs></svg><rect width="280" height="280" fill="none" stroke="none" visibility="hidden"></rect></g></svg></g></svg>